<svg data-v-4eec7930="" viewBox="0 0 36 36" fill="none" xmlns="http://www.w3.org/2000/svg" width="128" height="128" id="avatar"><rect data-v-4eec7930="" width="36" height="36" fill="#BF3817"></rect><mask data-v-4eec7930="" id="mask__foreground" maskUnits="userSpaceOnUse" x="0" y="0" width="100" height="100"><rect data-v-4eec7930="" x="0" y="0" width="36" height="36" transform="translate(-2.210174577653161 1.238494272687019) rotate(6.931187892595403 8.688830029541702 11.746707431823046)scale(1.1180621694415414)" rx="26.276041818401048" fill="white"></rect></mask><mask data-v-4eec7930="" id="mask__background" maskUnits="userSpaceOnUse" x="0" y="0" width="100" height="100"><rect data-v-4eec7930="" id="test" x="0" y="0" width="36" height="36" fill="white"></rect><rect data-v-4eec7930="" x="0" y="0" width="36" height="36" transform="translate(-2.210174577653161 1.238494272687019) rotate(6.931187892595403 8.688830029541702 11.746707431823046)scale(1.1180621694415414)" rx="26.276041818401048" fill="black"></rect></mask><rect data-v-4eec7930="" x="0" y="0" width="36" height="36" fill="#023d67" mask="url(#mask__foreground)"></rect><g data-v-4eec7930="" mask="url(#mask__foreground)"><g data-v-4eec7930="" transform="translate(-4.456654013434759 1.0157372330543168) rotate(3.295996765099666 33.73693643407535 34.93685070894904)"><path data-v-4eec7930="" d="M11.992694694776613 23.064506661690892c1.08074108167248 4.750485139895491 10.493751052306651 3.520866887844874 12.014610610446773 0" stroke="#FFFFFF" fill="none" stroke-linecap="round"></path><rect data-v-4eec7930="" x="7.895183674989598" y="13.155694347943847" width="4.706704052268128" height="2.6301596446912603" rx="1" stroke="none" fill="#FFFFFF"></rect><rect data-v-4eec7930="" x="23.398112272742274" y="13.155694347943847" width="4.706704052268128" height="2.6301596446912603" rx="1" stroke="none" fill="#FFFFFF"></rect></g></g><g data-v-4eec7930="" mask="url(#mask__background)"><g data-v-4eec7930="" transform="translate(-4.456654013434759 1.0157372330543168) rotate(3.295996765099666 33.73693643407535 34.93685070894904)"><path data-v-4eec7930="" d="M11.992694694776613 23.064506661690892c1.08074108167248 4.750485139895491 10.493751052306651 3.520866887844874 12.014610610446773 0" stroke="#000000" fill="none" stroke-linecap="round"></path><rect data-v-4eec7930="" x="7.895183674989598" y="13.155694347943847" width="4.706704052268128" height="2.6301596446912603" rx="1" stroke="none" fill="#000000"></rect><rect data-v-4eec7930="" x="23.398112272742274" y="13.155694347943847" width="4.706704052268128" height="2.6301596446912603" rx="1" stroke="none" fill="#000000"></rect></g></g></svg>